<svg width="195" height="40" viewBox="90 0 195 40" fill="none" xmlns="http://www.w3.org/2000/svg">
<path d="M93.78 30V15.8H103.1V17.04H95.18V22.26H101.86V23.42H95.18V30H93.78ZM105.557 30V15.8H106.957V30H105.557ZM110.438 15.8L115.078 21.98L119.698 15.8H121.278L115.838 23L121.118 30H119.538L115.078 24.02L110.598 30H108.998L114.278 23L108.838 15.8H110.438ZM140.618 30V18.44L135.478 27.42H134.598L129.438 18.44V30H128.038V15.8H129.478L135.018 25.52L140.598 15.8H142.018V30H140.618ZM149.977 15.8H151.157L157.057 30H155.577L153.737 25.56H147.357L145.537 30H144.037L149.977 15.8ZM153.417 24.46L150.557 17.44L147.657 24.46H153.417ZM159.093 30V15.8H165.093C165.706 15.8 166.266 15.9267 166.773 16.18C167.293 16.4333 167.739 16.78 168.113 17.22C168.486 17.6467 168.773 18.1267 168.973 18.66C169.186 19.18 169.293 19.7133 169.293 20.26C169.293 20.9533 169.159 21.6 168.893 22.2C168.639 22.8 168.273 23.3067 167.793 23.72C167.313 24.1333 166.759 24.4 166.133 24.52L169.613 30H168.033L164.693 24.76H160.493V30H159.093ZM160.493 23.52H165.133C165.693 23.52 166.179 23.3667 166.593 23.06C167.006 22.74 167.326 22.3333 167.553 21.84C167.779 21.3467 167.893 20.82 167.893 20.26C167.893 19.6867 167.759 19.16 167.493 18.68C167.239 18.1867 166.893 17.7933 166.453 17.5C166.013 17.1933 165.533 17.04 165.013 17.04H160.493V23.52ZM172.159 30V15.82H173.559V24.06L181.379 15.8H182.919L177.119 22.04L183.219 30H181.639L176.219 22.88L173.559 25.64V30H172.159ZM194.55 28.76V30H185.01V15.8H194.37V17.04H186.41V22.16H193.35V23.34H186.41V28.76H194.55ZM207.278 17.04H202.218V30H200.818V17.04H195.758V15.8H207.278V17.04ZM209.405 30V15.8H215.285C215.898 15.8 216.458 15.9267 216.965 16.18C217.485 16.4333 217.932 16.78 218.305 17.22C218.692 17.6467 218.985 18.1267 219.185 18.66C219.398 19.18 219.505 19.7133 219.505 20.26C219.505 21.0333 219.332 21.7667 218.985 22.46C218.638 23.14 218.158 23.6933 217.545 24.12C216.932 24.5467 216.218 24.76 215.405 24.76H210.805V30H209.405ZM210.805 23.52H215.345C215.905 23.52 216.392 23.3667 216.805 23.06C217.218 22.7533 217.538 22.3533 217.765 21.86C217.992 21.3667 218.105 20.8333 218.105 20.26C218.105 19.6733 217.972 19.14 217.705 18.66C217.438 18.1667 217.085 17.7733 216.645 17.48C216.218 17.1867 215.745 17.04 215.225 17.04H210.805V23.52ZM221.846 30V15.8H223.246V28.76H231.446V30H221.846ZM237.907 15.8H239.087L244.987 30H243.507L241.667 25.56H235.287L233.467 30H231.967L237.907 15.8ZM241.347 24.46L238.487 17.44L235.587 24.46H241.347ZM245.555 22.8C245.555 21.9467 245.702 21.1 245.995 20.26C246.302 19.42 246.742 18.66 247.315 17.98C247.888 17.2867 248.595 16.74 249.435 16.34C250.275 15.9267 251.228 15.72 252.295 15.72C253.548 15.72 254.628 16.0133 255.535 16.6C256.442 17.1733 257.108 17.9133 257.535 18.82L256.435 19.5C256.128 18.8733 255.742 18.38 255.275 18.02C254.808 17.6467 254.308 17.38 253.775 17.22C253.255 17.06 252.735 16.98 252.215 16.98C251.362 16.98 250.608 17.1533 249.955 17.5C249.302 17.8333 248.748 18.2867 248.295 18.86C247.855 19.4333 247.522 20.0667 247.295 20.76C247.068 21.4533 246.955 22.16 246.955 22.88C246.955 23.6667 247.088 24.42 247.355 25.14C247.622 25.8467 247.995 26.48 248.475 27.04C248.955 27.6 249.515 28.0467 250.155 28.38C250.808 28.7 251.515 28.86 252.275 28.86C252.808 28.86 253.355 28.7667 253.915 28.58C254.475 28.3933 254.995 28.1067 255.475 27.72C255.955 27.3333 256.348 26.8333 256.655 26.22L257.815 26.82C257.508 27.5267 257.048 28.1267 256.435 28.62C255.835 29.1133 255.155 29.4867 254.395 29.74C253.648 29.9933 252.915 30.12 252.195 30.12C251.222 30.12 250.328 29.9133 249.515 29.5C248.702 29.0733 247.995 28.5133 247.395 27.82C246.808 27.1133 246.355 26.3267 246.035 25.46C245.715 24.58 245.555 23.6933 245.555 22.8ZM269.746 28.76V30H260.206V15.8H269.566V17.04H261.606V22.16H268.546V23.34H261.606V28.76H269.746Z" fill="white"/>
<path fill-rule="evenodd" clip-rule="evenodd" d="M277.06 15.1309L276.618 10.0984C276.618 10.0984 276.609 9.36552 276.194 8.94963C275.773 8.52956 275.041 8.52079 275.041 8.52079L270.009 8.07984L270.008 8.06313L275.041 7.62177C275.041 7.62177 275.772 7.61342 276.193 7.19251C276.609 6.77578 276.618 6.04462 276.618 6.04462L277.062 1.0096L277.08 1.00877L277.519 6.04295C277.519 6.04295 277.526 6.77661 277.947 7.19668C278.362 7.61258 279.096 7.62051 279.096 7.62051L284.131 8.05979L284.13 8.08318L279.093 8.51953C279.093 8.51953 278.364 8.53081 277.948 8.94754C277.527 9.36845 277.516 10.0967 277.516 10.0967L277.08 15.1334L277.06 15.1309Z" fill="#FF3E3E"/>
</svg>
